/* XPM */
static char *result[] = {
/* columns rows colors chars-per-pixel */
"64 64 49 1 ",
"  c black",
". c #010000",
"X c #000100",
"o c #010100",
"O c #000001",
"+ c #010001",
"@ c #000101",
"# c #010101",
"$ c #785448",
"% c #795448",
"& c #785548",
"* c #795548",
"= c #785449",
"- c #795449",
"; c #785549",
": c #795549",
"> c #FE9800",
", c #FF9800",
"< c #FE9900",
"1 c #FF9900",
"2 c #FE9801",
"3 c #FF9801",
"4 c #FE9901",
"5 c #FF9901",
"6 c #FEC006",
"7 c #FFC006",
"8 c #FEC106",
"9 c #FFC106",
"0 c #FEC007",
"q c #FFC007",
"w c #FEC107",
"e c #FFC107",
"r c #FEEA3A",
"t c #FFEA3A",
"y c #FEEB3A",
"u c #FFEB3A",
"i c #FEEA3B",
"p c #FFEA3B",
"a c #FEEB3B",
"s c #FFEB3B",
"d c #FEFEFE",
"f c #FFFEFE",
"g c #FEFFFE",
"h c #FFFFFE",
"j c #FEFEFF",
"k c #FFFEFF",
"l c #FEFFFF",
"z c white",
"x c None",
/* pixels */
"xxxxxxxxxxxxxxxxxxxxxxxxXXOOXX++  #o@@++ooxxxxxxxxxxxxxxxxxxxxxx",
"xxxxxxxxxxxxxxxxxxxxxxxxXXOO@X++  +#@#++ooxxxxxxxxxxxxxxxxxxxxxx",
"xxxxxxxxxxxxxxxxxxxxooO ggljddhhkkzzllhhdd  ##xxxxxxxxxxxxxxxxxx",
"xxxxxxxxxxxxxxxxxxxxooOOggllddhhkkzzljhhdd  ##xxxxxxxxxxxxxxxxxx",
"xxxxxxxxxxxxxxxx....;;xx114455552222<133<<==%-O ..xxxxxxxxxxxxxx",
"xxxxxxxxxxxxxxxx....;;xx1144544522221133<<==--  . xxxxxxxxxxxxxx",
"xxxxxxxxxxxxOOXX&&$$&&,>33,,5522>>115544>>&&%%$$==  OOxxxxxxxxxx",
"xxxxxxxxxxxxOOXX&&$$&&>>33,,5522>>115144>>&$%%$$==  OOxxxxxxxxxx",
"xxxxxxxxxx..ggjj>><<44>>ww00ww99ww9999ww225533:---::&&  xxxxxxxx",
"xxxxxxxxxx..ggjj>><<44>>w000ww99ww9999ww225533%---::&&  xxxxxxxx",
"xxxxxxxx@@::ff22<<eewwOOOOuuppOO  iisswwee0055,,35==%%&&ooxxxxxx",
"xxxxxxxx@@::fg22<<eewwO OOsuppOO  riapwweew055,,3,==%%&&ooxxxxxx",
"xxxxxx#@%%=-33ww00e9aaooXXssttoo@@uuuuttas88687722>>::**==ooxxxx",
"xxxxxx##%%--33ww00eeyaooXXssttoo@@uuuuttss886677222>:-**==ooxxxx",
"xxxxooggll>>4497yyutyy@@XXrrpp++++rriittuupp9966885555&&--;;@@xx",
"xxxxooggll,24499yyuuyy@@XXrrpp+#++rriittuupp9966985515&&--;;@@xx",
"xxxxOOxx55,3ww77+#XXoo..o... X@#@@@@##oo+Orraattee7644>>;;;;XXxx",
"xxxxOOxx55,,0w77##XXoo..oo.. X@@@@@@##oo++rrayttee6644>>;;;;XXxx",
"xx@@lljj55qqwwir OXXoo......##OO..  @@@@O OO##kkppur76,,>>**$$##",
"xx@@lljj55qqwwirX XXoo......#oOO..  @@@@  OO##kkpptt77,,>>**$$##",
"xxookz>>8877turrrriiXXXXssrryyaaaattppyyss@#O@xxrrtt88ee>>==::XX",
"xxoozz>>8877uurrrriiXXXXssrryyaasatrppyyss##OOxxrrtt88we2>==::X@",
"xx@Ojj1188aaasttyyuuXXXXuutuuuyappppyyiittOOoohzssii9988<<::==  ",
"xx@Xjj5168aiaatpyyuuXoXXuuttuuaapppiyyiittOOoozzssii9988<<::-=  ",
"  ggll11ewuuusyyppss..@@ttttssyyttiiuutuaaXXXXhhaattpp6022;;$$@@",
"  ggll11wwuussyyppss..@@tttrsuyyttiiuuttaaXXXXhfaaptpp6623;;$$@@",
"##llhz33eeuuiiiiuuss##++ttuuuussiippiiuuX@##rrssiiiyaa6635,,**oo",
"##llzz33qeuuiiiiuuss##.+ttuuuussiippiiuu@@#@rrssiiiiay6655,,*%oo",
"oohhzz2277ppssppXXoo##  ..#@  #@OO. ..XoXXspyuiayyiiuu880022**oo",
"oohhzz2277ppssppXXoo##X ..@@X @@OO  ..ooXXssuuasyyiius880022**oo",
"@@jjgg44eeytipuuXXOO++o.oooo++OO@@OO@@  ++@@ttusssrrttttqq44%% O",
"@@jjlg44eettiiuuXXOO++oooooo++OO@#OO@@  ++@@ttsaastrttttqq44%%  ",
"##xxhh3300ppaaaaaytt  XXaauuppttyuryaaaa..  ++rrtupsaass0q55**+O",
"##xxhh3300psaaaaaatt  Xoaauuppttuyrraaaa..  ++rrttssaassqq55**++",
"##hhll22wwiiaarriiuu###@usssrrusssrryyaauu..OOturriittaa9855::..",
"##hhll22wwiiaarriiuu##O@uussrruussrryyaauu..OOttrriittaa8855::..",
"++jjff>>66ppiiuuttaa@@OOaarrrruuyyusrrppss@@++ppssuutttt0022&&@@",
"+#jkff>>66ppiiuuttaa@@OOaarrrruuyyuurtapss@O+Opppsyututt0022&&@@",
"xx..xx4499qqiiyyaass##oottiiaauussaiyyuuuuoo  ppaaiiss77881<==#+",
"xx..xx4499qqiiyyaass##oottiiaauussaayyuuuuoo  ptaaiiss7768<<==##",
"xx++11224588uuppaattXX..iissyyttyyiippuurr  ##ssaassiiww<<<<%%..",
"xx++11225588uuppaatt@X..iassyyttyyiippuutr  ##ssaassiiww<<<<%%..",
"xxXo333355eeeeuu++@@OO++oo@@++##  ##OOOO    ppuuiiyyqq00,,--==X ",
"xxXX333355eeeesu++@@OO++oo@@++##  ##OOO@    psuuiayyqq00,,--==XX",
"xxxx@@,><<1100qqooXXXX##   X..OO..Xo  @@XXyyssaauuwwew3,>>::+Oxx",
"xxxx@@>><<1100qqooXXXX##     .OO..oo. @@XXyyssaauuwwee33>>::OOxx",
"xxxx  ,1,,444<66q7aatiOO@@iippX XXaauupprrsappppwwww4433==&&++xx",
"xxxx @1,,,444466qqaappOO@@iippXXXXaauuppryssppppwwww4432==&&++xx",
"xxxxxx  115522338988rrOO OaatuOOo.ttrtuussuuwwee99<<====$$#@xxxx",
"xxxxxx  1155223,8888rrO OOaauuOO..ttttuussuywwee99<<====$$##xxxx",
"xxxxxxxx@@44,,22227777XX@@yyrr..@@aapppp99668811>>55%%&$XXxxxxxx",
"xxxxxxxx@@44,,2222777qXX@@yyrr..XXaaippp99668811>>55%%$$XXxxxxxx",
"xxxxxxxxxx O,,22335544eee977880066qq66qq66<<,,<<>>==%%..xxxxxxxx",
"xxxxxxxxxxOO,,22335544ee8977880066qq66q766<<,,<<>2=$%%..xxxxxxxx",
"xxxxxxxxxxxxXXoo<44411,,333333>>115533442211*&&&$$=$XXxxxxxxxxxx",
"xxxxxxxxxxxxXXoo<<441,,,333333>>1155334422<1&&&&$$$$XXxxxxxxxxxx",
"xxxxxxxxxxxxxxxx..##&&==,1>>42331144233,>>$&::$$##XXxxxxxxxxxxxx",
"xxxxxxxxxxxxxxxx..##&&-=11>>243311442233>>$$::$$##XXxxxxxxxxxxxx",
"xxxxxxxxxxxxxxxxxxxx..OO$$--&&==**--&*;;&&XX+#@@xxxxxxxxxxxxxxxx",
"xxxxxxxxxxxxxxxxxxxx..OO$$--&&;=**--&&;;&&XX##@@xxxxxxxxxxxxxxxx",
"xxxxxxxxxxxxxxxxxxxxxxxx.. X++@@OO##..    xxxxxxxxxxxxxxxxxxxxxx",
"xxxxxxxxxxxxxxxxxxxxxxxx..  ++@@OO##..    xxxxxxxxxxxxxxxxxxxxxx",
"xxxxxxxxxxxxxxxxxxxxxxxxxxxxxxxxxxxxxxxxxxxxxxxxxxxxxxxxxxxxxxxx",
"xxxxxxxxxxxxxxxxxxxxxxxxxxxxxxxxxxxxxxxxxxxxxxxxxxxxxxxxxxxxxxxx"
};
