/* XPM */
static char *aG91c2Uy[] = {
/* columns rows colors chars-per-pixel */
"80 48 10 1 ",
"  c #252D25",
". c #8C6D3F",
"X c #F6754E",
"o c #9D8756",
"O c #F59E44",
"+ c #67A7E3",
"@ c #D9D2A1",
"# c #9FD2E5",
"$ c #F2EDF1",
"% c None",
/* pixels */
"%%%%%%%%%%%%%%%%++++++++++++++++++++++++++++++++++++++++++++++++%%%%%%%%%%%%%%%%",
"%%%%%%%%%%%%%%%+################################################+%%%%%%%%%%%%%%%",
"%%%%%%%%%%%%%%%+################################################+%%%%%%%%%%%%%%%",
"%%%%%%%%%%%%%%%+$$$$$$$$$$$$$$$$$$$$$$#$$$$$$$$$$$$$$$$$$$$$$$$$+%%%%%%%%%%%%%%%",
"%%%%%%%%%%%%%%%+$$$$$$$$$$$$$$$$$$$$$$#$$$$$$$$$$$$$$$$$$$$$$$$$+%%%%%%%%%%%%%%%",
"%%%%%%%%%%%%%%%+$$$$$$$$$$$$$$$$$$$$$##$$$$$$$$$$$$$$$$$$$$$$$$$+%%%%%%%%%%%%%%%",
"%%%%%%%%%%%%%%%+$$$$$$$$$$$$$$$$$$$$$##$$$$$$$$$$$$$$$$$$$$$$$$$+%%%%%%%%%%%%%%%",
"%%%%%%%%%%%%%%%+$$$$$$$$$$$$$$$$$$$$$##$$$$$$$$$$$$$$$$$$$$$$$$$+%%%%%%%%%%%%%%%",
"%%%%%%%%%%%%%%%+$$$$$$$$$$$$$$$$$$$$###$$$$$$$$$$$$$$$$$$$$$$$$$+%%%%%%%%%%%%%%%",
"%%%%%%%%%%%%%%%+$$$$$$$$$$$$$$$$$$$$####$$$$$$$$$$$$$$$$$$$$$$$$+%%%%%%%%%%%%%%%",
"%%%%%%%%%%%%%%%+$$$$$$$$$$$$$$$$$$$#######$$$$$$$$$$$$$$$$$$$$$$+%%%%%%%%%%%%%%%",
"%%%%%%%%%%%%%%%+$$$$$$$$$$$$$$$$$$$###$$$$#$$$$$$$$$$$$$$$$$$$$$+%%%%%%%%%%%%%%%",
"%%%%%%%%%%%%%%%+$$$$$$$$$$$$$$$$$$$##$$++$$#$$$$$$$$$$$$$$$$$$$$+%%%%%%%%%%%%%%%",
"%%%%%%%%%%%%%%%+$$$$$$$$$$$$$$$$$$###$+@@+$#$$$$$$$$$$$$$$$$$$$$+%%%%%%%%%%%%%%%",
"%%%%%%%%%%%%%%%+$$$$$$$$$$$$$$$$$$##$$#@@+$$#$$$$$$$$$$$$$$$$$$$+%%%%%%%%%%%%%%%",
"%%%%%%%%%%%%%%%+$$$$$$$$$$$$$$$$$###$+#oo@#$#$$$$$$$$$$$$$$$$$$$+%%%%%%%%%%%%%%%",
"%%%%%%%%%%%%%%%+$$$$$$$$$$$$$$$$$##$$ @@@@#$$#$$$$$$$$$$$$$$$$$$+%%%%%%%%%%%%%%%",
"%%%%%%%%%%%%%%%+$$$$$$$$$$$$$$$$$##$+@@@@@#+$#$$$$$$$$$$$$$$$$$$+%%%%%%%%%%%%%%%",
"%%%%%%%%%%%%%%%+$$$$$$$$$$$$$$$$##$$#@@@@@#+$$#$$$$$$$$$$$$$$$$$+%%%%%%%%%%%%%%%",
"%%%%%%%%%%%%%%%+$$$$$$$$$$$$$$$$##$+#@oooo@@+$#$$$$$$$$$$$$$$$$$+%%%%%%%%%%%%%%%",
"%%%%%%%%%%%%%%%+$$$$$$$$$$$$$$$$#$$+#@@@@@@@ $$#$$$$$$$$$$$$$$$$+%%%%%%%%%%%%%%%",
"%%%%%%%%%%%%%%%+$$$$$$$$$$$$$$$##$+@#@@@@@@@@#$#$$$$$$$$$$$$$$$$+%%%%%%%%%%%%%%%",
"%%%%%%%%%%%%%%%+$$$$$$$$$$$$$$$#$$+@@@@@@@@@@#$$#$$$$$$$$$$$$$$$+%%%%%%%%%%%%%%%",
"%%%%%%%%%%%%%%%+$$$$$$$$$$$$$$$#$+@@oooooooo@#+$#$$$$$$$$$$$$$$$+%%%%%%%%%%%%%%%",
"%%%%%%%%%%%%%%%+$$$$$$$$$$$$$$$$$#@@@@@@@@@@@@#$$$$$$$$$$$$$$$$$+%%%%%%%%%%%%%%%",
"%%%%%%%%%%%%%%%+$$$$$$$$$$$$$$$$ #@@@@@@@@@@@@#+$$$$$$$$$$$$$$$$+%%%%%%%%%%%%%%%",
"%%%%%%%%%%%%%%%+$$$$#$$$$$$$#$$$+@@@@@@@@@@@@@@+$$$$$$$$$$$$$$$$+%%%%%%%%%%%%%%%",
"%%%%%%%%%%%%%%%%+#+# +#++#++ +#+@@oooooooooooo@@++# +#+#+ #+#++#+%%%%%%%%%%%%%%%",
"%%%%%%%%%%%%%%%% +@#@@+@@+@@@@+@@@@@@@@@@@@@@@@@@@+@@+@+@@#@+@@+%%%%%%%%%%%%%%%%",
"%%%%%%%%%%%%%%%% @@+@@@@@@@@@@@@@@@@@@@@@@@@@@@@@@@@@@@@@@+@@@@ %%%%%%%%%%%%%%%%",
"%%%%%%%%%%%%%%%% @@@@@@@@@@@@@@@@@@@@@@@@@@@@@@@@@@@@@@@@@@@@@@ %%%%%%%%%%%%%%%%",
"%%%%%%%%%%%%%%%% @oooooooooooooo@@            @@oooooooooooooo@ %%%%%%%%%%%%%%%%",
"%%%%%%%%%%%%%%%% @@@@@@    @@@@@@ ............ @@@@@@    @@@@@@ %%%%%%%%%%%%%%%%",
"%%%%%%%%%%%%%%%% @@@@@ . .. @@@@@ oo        o. @@@@@ . .. @@@@@ %%%%%%%%%%%%%%%%",
"%%%%%%%%%%%%%%%% @@@@ .O .O. @@@@ oo.oooooo o. @@@@ .O .O. @@@@ %%%%%%%%%%%%%%%%",
"%%%%%%%%%%%%%%%% @ooo .. ... ooo@ oo.oooooo o. @ooo .. ... ooo@ %%%%%%%%%%%%%%%%",
"%%%%%%%%%%%%%%%% @@@@        @@@@ oo.oooooo o. @@@@        @@@@ %%%%%%%%%%%%%%%%",
"%%%%%%%%%%%%%%%% @@@@ .O .O. @@@@ oo.oooooo o. @@@@ .O .O. @@@@ %%%%%%%%%%%%%%%%",
"%%%%%%%%%%%%%%%% @@@@@ . .. @@@@@ oo....... o. @@@@@ . .. @@@@@ %%%%%%%%%%%%%%%%",
"%%%%%%%%%%%%%%%% @ooooo    ooooo@ ooooooooooXO @ooooo    ooooo@ %%%%%%%%%%%%%%%%",
"%%%%%%%%%%%%%%%% @@@@@@@@@@@@@@@@ oo        .X @@@@@@@@@@@@@@@@ %%%%%%%%%%%%%%%%",
"%%%%%%%%%%%%%%%% @@@@@@@@@@@@@@@@ oo.oooooo o. @@@@@@@@@@@@@@@@ %%%%%%%%%%%%%%%%",
"%%%%%%%%%%%%%%%% @@@@@@@@@@@@@@@@ oo.oooooo o. @@@@@@@@@@@@@@@@ %%%%%%%%%%%%%%%%",
"%%%%%%%%%%%%%%%% @oooooooooooooo@ oo.oooooo o. @oooooooooooooo@ %%%%%%%%%%%%%%%%",
"%%%%%%%%%%%%%%%% @@@@@@@@@@@@@@@@ oo.oooooo o. @@@@@@@@@@@@@@@@ %%%%%%%%%%%%%%%%",
"%%%%%%%%%%%%%%%% @@@@@@@@@@@@@@@@ oo....... o. @@@@@@@@@@@@@@@@ %%%%%%%%%%%%%%%%",
"%%%%%%%%%%%%%%%% @@@@@@@@@@@@@@@@ ooooooooooo. @@@@@@@@@@@@@@@@ %%%%%%%%%%%%%%%%",
"%%%%%%%%%%%%%%%%%                                              %%%%%%%%%%%%%%%%%"
};
