/* XPM */
static char *result[] = {
/* columns rows colors chars-per-pixel */
"64 64 25 1 ",
"  c #1A5E20",
". c #1B5E20",
"X c #1A5F20",
"o c #1B5F20",
"O c #1A5E21",
"+ c #1B5E21",
"@ c #1A5F21",
"# c #1B5F21",
"$ c #4CAE4E",
"% c #4DAE4E",
"& c #4CAF4E",
"* c #4DAF4E",
"= c #4CAE4F",
"- c #4DAE4F",
"; c #4CAF4F",
": c #4DAF4F",
"> c #4CAE50",
", c #4DAE50",
"< c #4CAF50",
"1 c #4DAF50",
"2 c #4CAE51",
"3 c #4DAE51",
"4 c #4CAF51",
"5 c #4DAF51",
"6 c None",
/* pixels */
"6666666666666666666666666666666666666666666666666666666666666666",
"6666666666666666666666666666666666666666666666666666666666666666",
"6644<<<<55<<2255221,33>>4444##,,33>>2>,,3333,,11<<11443211331166",
"6644<<<155<<2255221133>>4424##,,33>>>>,,3333,,11<<11443311331166",
"6622%%@X..#+XXoo##--&&  ..++..@Xoooo.. ...@@++OO++++OO&&$$==,,66",
"6622%%XX.o##XXoo##--&&  ..++..X@oooo......@@++@O++++OO&&$$==,,66",
"66<<==--%%====*%&&oo....++%%%***$$::OO--**;;**$$*& X::--%%::,,66",
"66<<==--%%====%%&&oo....+O%%****$$::OO--**;;*:$$**@ ::--%%::,,66",
"6655::%%::::X@$$&&::%-&&&&##XX  ==%%@@XX..;;&&&&..::::$%&&oo4466",
"6615::%%::::X $$&&::--&&&&##XX  ==%%@@XX..&;&&&&..::::%%&&oo4466",
"6644##++::  ++  ###OooOO--&&==**..OOOO--  OO&&##oo..++..O ##1166",
"6644##++::  ++  ##OOooO+--&&=$**..O++O--  OO*&##oo..++ .OO##1166",
"6611==%*..##==  ****  OO++$$::;;@@&&==XXoo@@==oo&&%%--$$Xo%%>>66",
"6611==**..##== X****O O@++$$::;;@@&&==XXoo@@==oo&&%%--$$oo%%>>66",
"66==$$--..++;;-:$$$$++-:==++==;;oo&&&&==;;ooOO&&$=&$$$XX++;;3366",
"66==$$--..++;;--$$$$++::==+O==;;.o&&&&=$;;ooOO&&$$&&$$XX++;;3366",
"66**++=$++;;XXOO++oo  XX++....++*&;;--%%=;##O@##&&%%;;@@..**>>66",
"66**++==++;;XXOO++.o  XX++....++&&;;--%%==##XO##&&%%;;@@.+**>>66",
"66==..@@::  ++++;;..;;  ..X .....   ++... oo  ..##..OOo.oo..5566",
"66==..@@*:  ++++;;.o;;  ..  ....    ++....oo  ..##..OOoo.o..5566",
"66;;oo@###*%::%%++++@@::**==++==%%@@.X  **..&&oo..XX .==--::::66",
"66;;oo####**::%%++++@@::**==++==%%@@    **..&&oo..oX..==--;:::66",
"6633--  ;;==&&**  ..&&$=$$oo==;;==&&XX#+......+O..++::++===;>>66",
"6633--  ;:==&&**O ..&&==$$oo==;;==&&XX++......++o.++::++:===<>66",
"6622$$..--==$%..@@--XX--XX**%%&&###oXXXX....oo;;..@@XX++;&;;2266",
"6622$=o.--==$$..@@--XX-:XX&*%%&&o###XXXX..+ooo;;. @@XX++;;;;2266",
"6611..##&&$$.o++oo==::@@#o**%%..oooo$$**%%oo%% .++:;@@  ..$$,,66",
"6611..@#&&$$..++oo-=::@###**%%..oooo$$%*%%oo=%  #+::@@  ..$$,,66",
"6655OO==  oo**..::::**OO@@;=**+.  ==--..&&--OO. ++==*:@@++@@%%66",
"6655OO==  oo**..::::**OO@@;;**++  ==:- .&&--OO..++==**@@++@@%%66",
"66>>X --..%%++**==--&&++==oo++oo++;;&&&&;:--..OO&&..==;-++..5566",
"66>>XX--..%-++:*==--&&++==oo++oo++;;&&&&::--..OO&*..==;;++..4566",
"66,, O  ++::OO::::$=  ;;%%    ..==**==  %%::OO%%o...$$::  OO2266",
"66,,    ++::OO::::=-  ;;%%  . ..==**==  %%::OO%%oo..$$::  OO2266",
"66<<$$..--..%%:*--**@@==%%..%%oo==..$$::::..%%%*==OO&&++$$  %%66",
"66<<$$..--..%%-:--**@@==$*..%%oo==..$$::::..$%%%==OO&*.+$$  %%66",
"66>>::OO::##..$$**OO-%$$oo++++::O+;;::==;:@@&&-%;;##ooOO%%$$==66",
"66>>::OO::##..$$** O%%$$oo++++:-OO;;::==::@#&&=%;=##oo O%%$$==66",
"66<1XX++  ::  ##..--**++**@@%%**::O@%%=$##%$=$**oooo  ;;&&&&==66",
"66<<XX#.  ::  ##..--**++%*@@%%**::OO%%==##%%$$**Xooo  ;;&&&&==66",
"66<<oo&&..&&%-&&#+;;++**  ++::==$$::..++XX&&--..==@@&&o.**::%%66",
"66<<oo&&..$$--&&++;;++**  ++::==$$::..++Xo&&--..==@@&&..**::%%66",
"6633#@;;&&XX&$@@%%@X++ooooOO%%$$;=;;++==$$..XX$$..$$--@@  XX;&66",
"6633##;;&&X@&&@@%%XX++ooooOO%%$$;;;;+#==$$..XX$$..$$--@@. XX=;66",
"66,,%%OO$$==..oo:*@@:;  o.XX%%%$**$=oo++++::*:XX O..;;::##  :;66",
"66,,%%OO=$;=..oo::@@::  ooXX%%$%**==oo++++::**XXOO..;;;;##  ::66",
"6622--  ..**O+##++;;##Xo%%;;##  ......$$==**oo%%::##  $$##==**66",
"6632--  ..**OO##++;;##XX%%;:##   .....$$==**oo%%:;##  $$@#==**66",
"66,3++$$$=++++++ .--XX==***%**OO    $$;;&;..%%--%%;;&&OO@@::$$66",
"6633++$&==++++++..--XX==******OO    $$;:&&..%*--%%:;&& O@@::$$66",
"6622++%%$$@#::....++....$$**$$--++....;;oo;;**;&**;;OX..**$$--66",
"6622++%%$$##::... ++.+..$$**$$--++.o..;;oo;;**;;**;;   .**$$--66",
"6633..::oX$$..$$::OO@@OO..##..  oo##..  ..##++++OO .....oo++..66",
"6633..;:XX$$..$$*:OO@@OO..##..O.oo##..  ..##++++OO......oo++o.66",
"6655==;;*%..==$$;;--$=::..XX::##::;; @  $$@@@@O+*&##::$$*%%%o.66",
"6655==;;%%..=-$$;;--$$::.oXX::##:*;;OO  $$@@@@OO**##::$$**%%..66",
"6611=-&&..%%==$$--;;;=::$$####  ==;;++&&==**==XX##OO..$$  .+..66",
"6611--&&..%-==$$--;;==::$$#+o#  ==;;++&&==**==XX##OO..$$  ....66",
"66<<&&##****%%..  ......OO..++++..o.oo......@@++##..  ..%%$%1166",
"66<<&$##****-*..  ......OO..++#+..oooo......@@++##..  ..%%%%1<66",
"664<oo++11<>5544<<55<<44>>44<<15XX@@>><<,,,,4<;:;;--<<>>553,,,66",
"66<<oo++11>>5544<<55<<44>>44<411XX@@>><<,,,,24:;;;--<<>>5533,,66",
"6666666666666666666666666666666666666666666666666666666666666666",
"6666666666666666666666666666666666666666666666666666666666666666"
};
