/* XPM */
static char *result[] = {
/* columns rows colors chars-per-pixel */
"64 64 96 2 ",
"   c black",
".  c #010000",
"X  c #000100",
"o  c #010100",
"O  c #000001",
"+  c #010001",
"@  c #000101",
"#  c #010101",
"$  c #24222E",
"%  c #25222E",
"&  c #24232E",
"*  c #25232E",
"=  c #24222F",
"-  c #25222F",
";  c #24232F",
":  c #25232F",
">  c #785448",
",  c #795448",
"<  c #785548",
"1  c #795548",
"2  c #785449",
"3  c #795449",
"4  c #785549",
"5  c #795549",
"6  c #B61C1C",
"7  c #B71C1C",
"8  c #B61D1C",
"9  c #B71D1C",
"0  c #B61C1D",
"q  c #B71C1D",
"w  c #B61D1D",
"e  c #B71D1D",
"r  c #FE5622",
"t  c #FF5622",
"y  c #FE5722",
"u  c #FF5722",
"i  c #FE5623",
"p  c #FF5623",
"a  c #FE5723",
"s  c #FF5723",
"d  c #D01040",
"f  c #D11040",
"g  c #D11140",
"h  c #D01041",
"j  c #D11041",
"k  c #FE9800",
"l  c #FF9800",
"z  c #FE9900",
"x  c #FF9900",
"c  c #FE9801",
"v  c #FF9801",
"b  c #FE9901",
"n  c #FF9901",
"m  c #3E50B4",
"M  c #3F50B4",
"N  c #3E51B4",
"B  c #3F51B4",
"V  c #3E50B5",
"C  c #3F50B5",
"Z  c #3E51B5",
"A  c #3F51B5",
"S  c #9C26B0",
"D  c #9D26B0",
"F  c #9C27B0",
"G  c #9D27B0",
"H  c #9C26B1",
"J  c #9D26B1",
"K  c #9C27B1",
"L  c #9D27B1",
"P  c #9D00FE",
"I  c #9D01FE",
"U  c #9C00FF",
"Y  c #9D00FF",
"T  c #9C01FF",
"R  c #03A8F4",
"E  c gray62",
"W  c #9F9E9E",
"Q  c #9E9F9E",
"!  c #9F9F9E",
"~  c #9E9E9F",
"^  c #9F9E9F",
"/  c #9E9F9F",
"(  c #9F9F9F",
")  c #E6EAD6",
"_  c #E7EAD6",
"`  c #E6EBD6",
"'  c #E6EAD7",
"]  c #FEFEFE",
"[  c #FFFEFE",
"{  c #FEFFFE",
"}  c #FFFFFE",
"|  c #FEFEFF",
" . c #FFFEFF",
".. c #FEFFFF",
"X. c white",
"o. c None",
/* pixels */
"o.o.o.o.o.o.o.o.o.o.o.o.o.o.o.o.o.o.o.o.o.o.o.o.o.o.o.o.o.o.o.o.o.o.o.o.o.o.o.o.o.o.o.o.o.o.o.o.o.o.o.o.o.o.o.o.o.o.o.o.o.o.o.o.",
"o.o.o.o.o.o.o.o.o.o.o.o.o.o.o.o.o.o.o.o.o.o.o.o.o.o.o.o.o.o.o.o.o.o.o.o.o.o.o.o.o.o.o.o.o.o.o.o.o.o.o.o.o.o.o.o.o.o.o.o.o.o.o.o.",
"o.o.o.o.o.o.o.o.o.o.o.o.o.o.o.o.o.o.o.o.o.o.o.o.* : - - % % : : = $ - : & & $ $ - - * : o.o.o.o.o.o.o.o.o.o.o.o.o.o.o.o.o.o.o.o.",
"o.o.o.o.o.o.o.o.o.o.o.o.o.o.o.o.o.o.o.o.o.o.o.o.* * - - % % : : = = : : & & $ $ - - * * o.o.o.o.o.o.o.o.o.o.o.o.o.o.o.o.o.o.o.o.",
"o.o.o.o.o.o.o.o.o.o.o.o.o.o.o.o.o.o.o.o.o.o.o.o.% % * * i i u u r r i i y y i i r r & & % % o.o.o.o.o.o.o.o.o.o.o.o.o.o.o.o.o.o.",
"o.o.o.o.o.o.o.o.o.o.o.o.o.o.o.o.o.o.o.o.o.o.o.o.% % * * i i u u r r i i y y i i r p & & % % o.o.o.o.o.o.o.o.o.o.o.o.o.o.o.o.o.o.",
"o.o.o.o.o.o.o.o.o.o.o.o.o.o.o.o.o.o.o.o.o.o.+ + + + y y * * * * % % i i $ $ * * = = i i     ; ; o.o.o.o.o.o.o.o.o.o.o.o.o.o.o.o.",
"o.o.o.o.o.o.o.o.o.o.o.o.o.o.o.o.o.o.o.o.o.o.+ + + + y y * % * * % % r i $ $ * : = = i p     ; ; o.o.o.o.o.o.o.o.o.o.o.o.o.o.o.o.",
"o.o.o.o.o.o.o.o.o.o.o.o.o.o.o.o.o.o.o.o.@ @     j j i p = = t t $ $ s s * * t r ; = t t a a @ @ : : o.o.o.o.o.o.o.o.o.o.o.o.o.o.",
"o.o.o.o.o.o.o.o.o.o.o.o.o.o.o.o.o.o.o.o.@ @     j j i i = = t t $ $ s s * * i r ; & t t a a @ @ : : o.o.o.o.o.o.o.o.o.o.o.o.o.o.",
"o.o.o.o.o.o.o.o.o.o.o.o.o.o.o.o.o.o.@ @ o o f f f f y y ; ; r r $ $ % % % % u u & & s s a a . +   O # # X X o.o.o.o.o.o.o.o.o.o.",
"o.o.o.o.o.o.o.o.o.o.o.o.o.o.o.o.o.o.@ O o o f f f f y y ; ; r r $ $ % % % % u u & & s s a a . .     # # X X o.o.o.o.o.o.o.o.o.o.",
"o.o.o.o.o.o.o.o.o.o.o.o.o.o.o.o.+ + + + f f f f g g t t = = t t r t = = a a y y % % a a i i | | ] ] ] |   @ O O o.o.o.o.o.o.o.o.",
"o.o.o.o.o.o.o.o.o.o.o.o.o.o.o.o.+ + + + f f f f g g t t = = t t r r = = a a y y % % a a i i | | ] ] ] ] O O O O o.o.o.o.o.o.o.o.",
"o.o.o.o.o.o.o.o.o.o.o.o.o.o.X X o o d d j j f f f f s s - - y y y y p p p p r i * * s u i i / / X.X.X.X.{ { . . o.o.o.o.o.o.o.o.",
"o.o.o.o.o.o.o.o.o.o.o.o.o.o.X X o o d d j j f d f f s s - - y y y y p p p p i i * * u u i i / / X.X.X.X.{ { . . o.o.o.o.o.o.o.o.",
"o.o.o.o.o.o.o.o.o.o.o.o.o.o.# o j j f d h h f f d d J J F F D D D D H H L L K K L L F F J J F F S S ....X.} + + o.o.o.o.o.o.o.o.",
"o.o.o.o.o.o.o.o.o.o.o.o.o.o.# # j j g f h h j f d d J J F F D D D D H H L L K K L L F F J J F F S S ....X.X.+ + o.o.o.o.o.o.o.o.",
"o.o.o.o.o.o.o.o.o.o.o.o.o.o.# # f f k k c c $ $ : : S S G G K K F F J J L L J J K K S S H H K K ~ ~ ~ ~ X.X.. . o.o.o.o.o.o.o.o.",
"o.o.o.o.o.o.o.o.o.o.o.o.o.o.# # j f k c c c $ $ : : S S G G K K G F J J L L J J K K F S H H K K ~ ~ ~ ~ X.X.. . o.o.o.o.o.o.o.o.",
"o.o.o.o.o.o.o.o.o.o.o.o.o.o.o X ; ; v v n x : : = = % % c c n n b b v v R R n n R R l l z z ( ( Q Q | |  .[ X X o.o.o.o.o.o.o.o.",
"o.o.o.o.o.o.o.o.o.o.o.o.o.o.X X ; ; v v x n : : = = % % c c x n b b c v R R n n R R l l z z ( ( Q Q | | } [ X X o.o.o.o.o.o.o.o.",
"o.o.o.o.o.o.o.o.o.o.o.o.o.o.# # : : b b x x ; ; : : c c z z z z n n c c + . c c     n n k k ^ ^ . . o o + + # # o.o.o.o.o.o.o.o.",
"o.o.o.o.o.o.o.o.o.o.o.o.o.o.# # ; : b b x x ; ; : : c c z z z z n n c c . . c c     n n k k ^ ^ . . o o + + # # o.o.o.o.o.o.o.o.",
"o.o.o.o.o.o.o.o.o.o.o.o.o.o.# # & & % % k k c c b b x x c c b b l l v v v v n n z z k k v c l l @ @ o.o.o.o.o.o.o.o.o.o.o.o.o.o.",
"o.o.o.o.o.o.o.o.o.o.o.o.o.o.# # & & % % k k c c b b x x c c b b x l v v v v v n z k k l v v l l @ @ o.o.o.o.o.o.o.o.o.o.o.o.o.o.",
"o.o.o.o.o.o.o.o.o.o.o.o.o.o.    o o T T z z n n b c x x v n & $ % % * * x x c c n n l l b b v v + + o.o.o.o.o.o.o.o.o.o.o.o.o.o.",
"o.o.o.o.o.o.o.o.o.o.o.o.o.o.    o o T T z z n n b b x x n n & & % % * * x x c c n n v v b b v v + + o.o.o.o.o.o.o.o.o.o.o.o.o.o.",
"o.o.o.o.o.o.o.o.o.o.o.o.o o     I I Y Y I I U U n n k k c c ; ; & & - - ; ; X X X X : : ; ; * *     o.o.o.o.o.o.o.o.o.o.o.o.o.o.",
"o.o.o.o.o.o.o.o.o.o.o.o.o o     I I Y Y I I U U n n k k c c ; ; & & % - ; ; X X X X : : ; ; * *     o.o.o.o.o.o.o.o.o.o.o.o.o.o.",
"o.o.o.o.o.o.o.o.o.o.o.o.o o Y Y } } [ [ { { P P U U k k n n : : & & * * ) ) ` ` _ _ ' ' * * - : O O o.o.o.o.o.o.o.o.o.o.o.o.o.o.",
"o.o.o.o.o.o.o.o.o.o.o.o.o o Y Y } } [ [ { { P P U U k k n n : : & & * * ) ) ` ` _ _ ' ' * * : :   O o.o.o.o.o.o.o.o.o.o.o.o.o.o.",
"o.o.o.o.o.o.o.o.o.o.o.o.. o E E ] [ X.X.X...[ [ S S S S L G : * & & : : & & ; ; % % $ $ ; ; X X @ @ o.o.o.o.o.o.o.o.o.o.o.o.o.o.",
"o.o.o.o.o.o.o.o.o.o.o.o.o o E E  .[ X.X.X.X.[ [ S S S S L L * * & & : : & & ; ; % % * $ ; ; X X @ @ o.o.o.o.o.o.o.o.o.o.o.o.o.o.",
"o.o.o.o.o.o.o.o.o.o.o.o.@ @ ^ ^ | | ] ] } } [ [ G G J L J D S S D D K K S F D D D D L L L K X X o.o.o.o.o.o.o.o.o.o.o.o.o.o.o.o.",
"o.o.o.o.o.o.o.o.o.o.o.o.@ @ ^ ^ | | ] ] } } [ [ G G L L J J S S D D K K F F D D D D L L K K X X o.o.o.o.o.o.o.o.o.o.o.o.o.o.o.o.",
"o.o.o.o.o.o.o.o.o.o.o o X o / / ! ! { { | | X.X.Z Z C C M M A A B B Z Z m m Z Z A A B B B B @ @ o.o.o.o.o.o.o.o.o.o.o.o.o.o.o.o.",
"o.o.o.o.o.o.o.o.o.o.o o X X / / ! ! { { | | X.X.Z Z C C M M A A B B Z Z m m Z Z A A B B B B @ @ o.o.o.o.o.o.o.o.o.o.o.o.o.o.o.o.",
"o.o.o.o.o.o.o.o.o.o.. . > > 5 5 ! ! ! ! W W Q Q A B C C C C C C M M C C Z Z V A C C M M Z Z   X o.o.o.o.o.o.o.o.o.o.o.o.o.o.o.o.",
"o.o.o.o.o.o.o.o.o.o.. . > > 5 5 ! ! ! ! W E Q Q A A C C C A C C M M C C Z Z V V C C M M Z Z X X o.o.o.o.o.o.o.o.o.o.o.o.o.o.o.o.",
"o.o.o.o.o.o.o.o.o.o.o o , , < < q q w w e e 2 2 M M m m V Z { { } }  . .A A [ [ { { | ] Z Z o o O O     o.o.o.o.o.o.o.o.o.o.o.o.",
"o.o.o.o.o.o.o.o.o.o.o o , , < < q q w w e e 2 2 M M m m V V { { } }  . .A A [  ...{ | | Z Z o o O O     o.o.o.o.o.o.o.o.o.o.o.o.",
"o.o.o.o.o.o.o.o.o.o.    4 4 q q 8 8 q q 9 9 e e C C B B N N  . .} } ..| V V ] ] | ] { } m m q 0 4 4 @ @ o.o.o.o.o.o.o.o.o.o.o.o.",
"o.o.o.o.o.o.o.o.o.o.    4 4 q q 8 8 q q 9 9 e e C C B B N N  . .} } | | V V ] ] { ] } } m m 0 0 4 4 @ O o.o.o.o.o.o.o.o.o.o.o.o.",
"o.o.o.o.o.o.o.o.o.o.    5 5 0 0 7 q e e w w 9 9 M M Z Z C C Z Z C C A A A A Z Z C C m m V V e e 1 1 @ @ o.o.o.o.o.o.o.o.o.o.o.o.",
"o.o.o.o.o.o.o.o.o.o.    5 5 0 0 7 7 e e w w 7 7 M M Z Z C C Z Z C C A A A A Z Z C C m m V V e e 1 1 @ @ o.o.o.o.o.o.o.o.o.o.o.o.",
"o.o.o.o.o.o.o.o.o.o.    2 2 e e q q q q q q M M Z Z M M A A Z Z M B m m A B C C 8 8 8 8 e e 8 8 1 < o o o.o.o.o.o.o.o.o.o.o.o.o.",
"o.o.o.o.o.o.o.o.o.o.    2 2 e e q q q q q q M M Z Z M M A A Z Z B B m m B B C C 8 8 8 8 e e 8 8 1 1 o o o.o.o.o.o.o.o.o.o.o.o.o.",
"o.o.o.o.o.o.o.o.o.o.@ O , , , 3 5 5 , , @ @ @ @ . . # # @ @ . . @ @ . . # # 8 8 e e e e 6 6 3 3 5 5 @ X o.o.o.o.o.o.o.o.o.o.o.o.",
"o.o.o.o.o.o.o.o.o.o.O O , , , 3 5 5 , , @ @ @ @ . . # # @ @ . o @ @ . . # # 8 8 e e e e 6 6 3 3 5 5 X X o.o.o.o.o.o.o.o.o.o.o.o.",
"o.o.o.o.o.o.o.o.o.o.+ +     > > 5 5 2 2     o.o.o.o.o.o.o.o.o.o.o.o.o.o.o o @ @ e e 0 0 8 8 4 4 O O . . o.o.o.o.o.o.o.o.o.o.o.o.",
"o.o.o.o.o.o.o.o.o.o.+ + X   > > 5 5 2 3     o.o.o.o.o.o.o.o.o.o.o.o.o.o.o o @ @ e e 0 0 8 8 4 4 O O . . o.o.o.o.o.o.o.o.o.o.o.o.",
"o.o.o.o.o.o.o.o.o.o.o.o.@ @     o o @ @ O O o.o.o.o.o.o.o.o.o.o.o.o.o.o.o.o.X X < < < < 4 4 O O # # o.o.o.o.o.o.o.o.o.o.o.o.o.o.",
"o.o.o.o.o.o.o.o.o.o.o.o.@ @     X o @ @ O . o.o.o.o.o.o.o.o.o.o.o.o.o.o.o.o.X X < < < < 4 4 O O + # o.o.o.o.o.o.o.o.o.o.o.o.o.o.",
"o.o.o.o.o.o.o.o.o.o.o.o.o.o.o.o.o.o.o.o.o.o.o.o.o.o.o.o.o.o.o.o.o.o.o.o.o.o.. . X X # # X X @ @ o.o.o.o.o.o.o.o.o.o.o.o.o.o.o.o.",
"o.o.o.o.o.o.o.o.o.o.o.o.o.o.o.o.o.o.o.o.o.o.o.o.o.o.o.o.o.o.o.o.o.o.o.o.o.o.. . X X # # X X @ @ o.o.o.o.o.o.o.o.o.o.o.o.o.o.o.o.",
"o.o.o.o.o.o.o.o.o.o.o.o.o.o.o.o.o.o.o.o.o.o.o.o.o.o.o.o.o.o.o.o.o.o.o.o.o.o.o.o.o.o.o.o.o.o.o.o.o.o.o.o.o.o.o.o.o.o.o.o.o.o.o.o.",
"o.o.o.o.o.o.o.o.o.o.o.o.o.o.o.o.o.o.o.o.o.o.o.o.o.o.o.o.o.o.o.o.o.o.o.o.o.o.o.o.o.o.o.o.o.o.o.o.o.o.o.o.o.o.o.o.o.o.o.o.o.o.o.o.",
"o.o.o.o.o.o.o.o.o.o.o.o.o.o.o.o.o.o.o.o.o.o.o.o.o.o.o.o.o.o.o.o.o.o.o.o.o.o.o.o.o.o.o.o.o.o.o.o.o.o.o.o.o.o.o.o.o.o.o.o.o.o.o.o.",
"o.o.o.o.o.o.o.o.o.o.o.o.o.o.o.o.o.o.o.o.o.o.o.o.o.o.o.o.o.o.o.o.o.o.o.o.o.o.o.o.o.o.o.o.o.o.o.o.o.o.o.o.o.o.o.o.o.o.o.o.o.o.o.o.",
"o.o.o.o.o.o.o.o.o.o.o.o.o.o.o.o.o.o.o.o.o.o.o.o.o.o.o.o.o.o.o.o.o.o.o.o.o.o.o.o.o.o.o.o.o.o.o.o.o.o.o.o.o.o.o.o.o.o.o.o.o.o.o.o.",
"o.o.o.o.o.o.o.o.o.o.o.o.o.o.o.o.o.o.o.o.o.o.o.o.o.o.o.o.o.o.o.o.o.o.o.o.o.o.o.o.o.o.o.o.o.o.o.o.o.o.o.o.o.o.o.o.o.o.o.o.o.o.o.o.",
"o.o.o.o.o.o.o.o.o.o.o.o.o.o.o.o.o.o.o.o.o.o.o.o.o.o.o.o.o.o.o.o.o.o.o.o.o.o.o.o.o.o.o.o.o.o.o.o.o.o.o.o.o.o.o.o.o.o.o.o.o.o.o.o.",
"o.o.o.o.o.o.o.o.o.o.o.o.o.o.o.o.o.o.o.o.o.o.o.o.o.o.o.o.o.o.o.o.o.o.o.o.o.o.o.o.o.o.o.o.o.o.o.o.o.o.o.o.o.o.o.o.o.o.o.o.o.o.o.o."
};
