/* XPM */
static char *result[] = {
/* columns rows colors chars-per-pixel */
"64 64 50 1 ",
"  c black",
". c #010000",
"X c #000100",
"o c #010100",
"O c #000001",
"+ c #010001",
"@ c #000101",
"# c #010101",
"$ c #F44236",
"% c #F54236",
"& c #F44336",
"* c #F54336",
"= c #F44237",
"- c #F54237",
"; c #F44337",
": c #F54337",
"> c #FEEA3A",
", c #FFEA3A",
"< c #FEEB3A",
"1 c #FFEB3A",
"2 c #FEEA3B",
"3 c #FFEA3B",
"4 c #FEEB3B",
"5 c #FFEB3B",
"6 c #9C26B0",
"7 c #9D26B0",
"8 c #9C27B0",
"9 c #9D27B0",
"0 c #9C26B1",
"q c #9D26B1",
"w c #9C27B1",
"e c #9D27B1",
"r c #2196F2",
"t c #FE80AA",
"y c #FF80AA",
"u c #FE81AA",
"i c #FF81AA",
"p c #FE80AB",
"a c #FF80AB",
"s c #FE81AB",
"d c #FF81AB",
"f c #FEE0BC",
"g c #FFE0BC",
"h c #FEE1BC",
"j c #FFE1BC",
"k c #FEE0BD",
"l c #FFE0BD",
"z c #FEE1BD",
"x c #FFE1BD",
"c c None",
/* pixels */
"cccccccccccccccccccccccccccccccccccccccccccccccccccccccccccccccc",
"cccccccccccccccccccccccccccccccccccccccccccccccccccccccccccccccc",
"cccccccccccccccccccccccccc    XXccoocc+###..cccccccccccccccccccc",
"cccccccccccccccccccccccccc    XXccoocc####..cccccccccccccccccccc",
"ccccccccccccccccccccccccccOO><11OO55  11,,X cccccccccccccccccccc",
"ccccccccccccccccccccccccccOO<<11O+55 .11,,XXcccccccccccccccccccc",
"ccccccccccccccccccccccccXX  11445533<<2222oocccccccccccccccccccc",
"ccccccccccccccccccccccccXX O11445533<<2222o#cccccccccccccccccccc",
"ccccccccccccccccccooXXO   ::==;;--$$%%--$$==##@@cccccccccccccccc",
"ccccccccccccccccccooXX+O  :-;=;;--$$%%--$$==##@@cccccccccccccccc",
"cccccccccccccc  XX+.$$**;;::$$--;;%%::;;$$%%==..##cccccccccccccc",
"cccccccccccccc  XX.+$$**;;:;$=--;;-%::;;$$%%==..##cccccccccccccc",
"ccccccccccccccXX%%==%%;;$$==&&@@kkXX+#ggOO&&;:==  cccccccccccccc",
"ccccccccccccccXX%%==%%;;$$=$&&@@kk X++ggOO&&::==  cccccccccccccc",
"cccccccccccccc++=-&&**--::..ggllOOkkxx..kk##--::@@cccccccccccccc",
"cccccccccccccc++=;&&**%-::..gfllOOkkxj..kk##--::@@cccccccccccccc",
"cccccccccccccccc@@**%%::oo##hhjj++ffkkoohhkk##O cccccccccccccccc",
"cccccccccccccccc@@**%%::oo##hhjj++ffkkoohhkk##  cccccccccccccccc",
"cccccccccccccc@@$$&&=;OOjj##kklljhzzjjkkffll..cccccccccccccccccc",
"cccccccccccccc@@$$&&;; Oxj@#kkllhhzzjjkkffll..cccccccccccccccccc",
"ccccccccccccccoooo%$::@#rrhhffllxxhhjhllggxx..XXcccccccccccccccc",
"ccccccccccccccoooo$$::##rrhhffllxxhhhjxlggxx..XXcccccccccccccccc",
"cccccccccccccccc##::&&==&$..zzzzkkXX..X llgg$$  cccccccccccccccc",
"cccccccccccccccc##::&*==&&..zzzzkkXX..XXllgg=%X cccccccccccccccc",
"cccccccccccccccccc@@$=::==%%OOllxxggkkjxkkxx;;  cccccccccccccccc",
"ccccccccccccccccccX@==::;=%%OOllxxggkkxxkkxx;;  cccccccccccccccc",
"ccccccccccccccO@++oo::::;:++@@++@@daaaddOO  OOO@cccccccccccccccc",
"ccccccccccccccOO++oX:;::::++@#++@@aaaaddOO .OOOOcccccccccccccccc",
"ccccccccccccccOO====**%-..ttaattaaiyssddssssssyy##cccccccccccccc",
"ccccccccccccccOO====*:--..ttaaytaaiissdassssdsya##cccccccccccccc",
"ccccccccccccccOO&$;;XX##XXppaayyiidauuppyyssayuu#o@@cccccccccccc",
"ccccccccccccccOO&&;;X@##XXppaayyiiayuuppyyssaauuoo@@cccccccccccc",
"cccccccccccc  .+**%%++ttaassppddppddpsppppyydsyyuuo.cccccccccccc",
"cccccccccccc  ..**%$++ptaassptddppddppppppyyddyyuu..cccccccccccc",
"cccccccccc++  ==$$..  itiiayuuiippssssyyssssaaaapp+#cccccccccccc",
"cccccccccc++  ==$$..  yyiipauuiippssssayssssaaaapp##cccccccccccc",
"cccccccccc#+&&;&$$oouuyyssdduuyydsssiitttytu  aaiioocccccccccccc",
"cccccccccc##&&&&$$oouuyyspdduuyyddssiittyytt  yaiuoocccccccccccc",
"cccccccccc##  $$==  xxjj##ssiiaassssaappayii.oxxhf++cccccccccccc",
"cccccccccc##  $$=;  xxjx##suiiaasssuaappyyii..xxhh++cccccccccccc",
"cccccccccccc..ooXXOOjjllOO68qqwwwwqqww8888XX++kkkk..cccccccccccc",
"cccccccccccc..ooXXOOjjllOO66qqwwewqqww8888X@++kkkko.cccccccccccc",
"cccccccccccccccc@@++..jjhh..77000097997799OOjjggOO..cccccccccccc",
"cccccccccccccccc@@+O..jjhh..770w0077997797OOjjggOO..cccccccccccc",
"cccccccccccccccc++88OOgghhXX8w9999ww6600 .OOjghhOOcccccccccccccc",
"cccccccccccccccc++88OOglhhXXww9999ww6600  OOjjhhOOcccccccccccccc",
"cccccccccccc..OO##88OOgghhzz@@776699w0##X@kfjj@#XXcccccccccccccc",
"cccccccccccc..OO##88OOggzhzz@@77669900#o@@ffjj@@X@cccccccccccccc",
"cccccccccccc  77qqew66X xlgg++wwww88ee  zkffxx..##cccccccccccccc",
"cccccccccccc O77qqww66  lxgg++wwww88ee  zzffxx..@#cccccccccccccc",
"cccccccccccc+#w0778866##xxlljj++eeXXXXzzgggg##OOcccccccccccccccc",
"cccccccccccc##ww778866@#xxlljj++eeXXXXzzgggg#oOOcccccccccccccccc",
"cccccccccc###@ww66ew9977XXkkkkjxOOffhfjjffww00OOcccccccccccccccc",
"cccccccccc####ww66wwe977XXkkkkjjOOffhhjjghww00O cccccccccccccccc",
"ccccccccO eeqq66ww0066qq##XXjjzzooffgg##OOee88##OO    cccccccccc",
"cccccccc +eeqq66ww0066q0##XXjjzz.offgg##OOee88##OO X .cccccccccc",
"cccc  oooo6666eeww99qq77ww77..oo  XX++eeee7789qq88q7.+cccccccccc",
"cccc  .ooo66669eww99qq77ww77..oo  XX++eeee77997q8877+Occcccccccc",
"ccccXXaadissppapttytttaassssiiddttppaaddiipaddiidduu  cccccccccc",
"ccccXXaaddssppaattttttaaudssiiddttppaaddiiaaddiidduu  cccccccccc",
"ccccXXssppppyyddddiiiiuudsuiyyuuttuuiiaaaayyddyyppii  cccccccccc",
"cccc Xssppppyyddddiiiiutdduiyyuuttuuiiaaaayyidyyppui Occcccccccc",
"cccc@@    OOoo++  OOXX..@@oooooo++OOOO########..##OO  cccccccccc",
"cccc@@O   OOoo++  OOXX..@@oooooo++OOOO#+######..##OO  cccccccccc"
};
