/* XPM */
static char *dHJlZQ__[] = {
/* columns rows colors chars-per-pixel */
"31 38 7 1 ",
"  c #403737",
". c #2F4C3A",
"X c #684F42",
"o c #527345",
"O c #A0825B",
"+ c #92A965",
"@ c None",
/* pixels */
"@@@@@@@@@@@@@@@@@@@@@@@@@@@@@@@",
"@@@@@@@@@@@@@@@o@@@@@@@@@@@@@@@",
"@@@@@@@@@@@@@@o+@@@@@@@@@@@@@@@",
"@@@@@@@@@@@@@@o++@@@@@@@@@@@@@@",
"@@@@@@@@@@@@@.oo+@@@@@@@@@@@@@@",
"@@@@@@@@@@@@@oo+++@@@@@@@@@@@@@",
"@@@@@@@@@@@@.ooo++@@@@@@@@@@@@@",
"@@@@@@@@@@@@ooo++++@@@@@@@@@@@@",
"@@@@@@@@@@@..o+o+++@@@@@@@@@@@@",
"@@@@@@@@@@..o.o+++++@@@@@@@@@@@",
"@@@@@@@@...o.o+o+++++@@@@@@@@@@",
"@@@@@@o...o.o+o+o++++++@@@@@@@@",
"@@@@@@@o....+o+++++++++++@@@@@@",
"@@@@@@@@@o.o.+o+++++++++++@@@@@",
"@@@@@@@@@@....++o+++++o@@@@@@@@",
"@@@@@@@@@....o..+o+.oo@@@@@@@@@",
"@@@@@@@@o...o.o.o.ooo++@@@@@@@@",
"@@@@@@@..o.o.oooooo+++++@@@@@@@",
"@@@@@...o.oooooo+o+o++++++@@@@@",
"@@@..o...oooo+o+o+++++++++++@@@",
"@@@@o...o.+o+o+o+++++++++++@@@@",
"@@@@@@o.....o+o++++++++++@@@@@@",
"@@@@@@@@.o....+o+o++++.o@@@@@@@",
"@@@@@@@.o.......o.o.o.o@@@@@@@@",
"@@@@@@o..o.o.o.o.oooooo+@@@@@@@",
"@@@@@o..o.o.oooooooooo+o+@@@@@@",
"@@@@...o.oooo+o+ooo+o+o+++@@@@@",
"@@@.o...oooo+o+o+o+++++++++@@@@",
"oo.o.o.oo+o+o+++++o++++++++++@@",
"@.o....o+o+o+++++++++++++++++++",
"@@@@@@o..oo+o+o+++++++++++++++@",
"@@@@@@@@@@.o+o+++o+o++++@@@@@@@",
"@@@@@@@@@@@ .+o+o+o+@@@@@@@@@@@",
"@@@@@@@@@@   X o+XXOXO@@@@@@@@@",
"@@@@@@@@@ X XXXXOOXOX@@@@@@@@@@",
"@@@@@@@@@@@XX XXOXOO@@@@@@@@@@@",
"@@@@@@@@@@@@  XXO X@@@@@@@@@@@@",
"@@@@@@@@@@@@@@XXX@@@@@@@@@@@@@@"
};
