/* XPM */
static char *result[] = {
/* columns rows colors chars-per-pixel */
"64 64 17 1 ",
"  c black",
". c #010000",
"X c #000100",
"o c #010100",
"O c #000001",
"+ c #010001",
"@ c #000101",
"# c #010101",
"$ c #785448",
"% c #795448",
"& c #785548",
"* c #795548",
"= c #785449",
"- c #795449",
"; c #785549",
": c #795549",
"> c None",
/* pixels */
">>>>>>>>>>>>>>>>>>>>>>>>>>>>>>>>>>>>>>>>>>>>>>>>>>>>>>>>>>>>>>>>",
">>>>>>>>>>>>>>>>>>>>>>>>>>>>>>>>>>>>>>>>>>>>>>>>>>>>>>>>>>>>>>>>",
">>>>>>>>>>>>>>>>>>>>>>>>>>>>>>>>>>>>>>>>>>>>>>>>>>>>>>>>>>>>>>>>",
">>>>>>>>>>>>>>>>>>>>>>>>>>>>>>>>>>>>>>>>>>>>>>>>>>>>>>>>>>>>>>>>",
">>>>>>$$::&&--%%:-==$$$$**$$XXXX;;;:%$====;;**-:--==::::==>>>>>>",
">>>>>>$$::&&--%%=-==$$%$**$$XXXX;;;;%%====;;**%---==::::==>>>>>>",
">>>>>>&&**;;;;**--::==$$&*$$  OO;;;;----==:-;;--&&$=%%;;::>>>>>>",
">>>>>>*&**;;;;**--:*==$$&&$$  OO;;;&----==--;;--&&==%%;;;:>>>>>>",
">>>>>>--::::--&&$$&&--%%%%::XX@X$===$$--&&%%==;;==**%%==-->>>>>>",
">>>>>>-=::*:--&&%$&&--%%%%;:XXXX$$==$$--&*%%==;;==**%%==-->>>>>>",
">>>>>>**;;&&==--$$**$$$$==::Xo##%*$$;;**%$;;**$$==**====;;>>>>>>",
">>>>>>**;;&&=$--$$**$$$$==::oo##**$$;;**%%;;**$$==**====;;>>>>>>",
">>>>>>&$&&;;==**==$$&&%-&&==#+XX;;**$$;;****$$**=-;;::;=::>>>>>>",
">>>>>>$$&&:;==**==$$$&%%&&==++XX;;**$$&;****$$**$=;;::==*;>>>>>>",
">>>>>>--::&&;&;;::--&&&&::$$oooo;;==::**%%-%;;---=$=;;$$**>>>>>>",
">>>>>>-:::&&&&;;::--&&&&::$$oooo;;==::**%%--;;--=-===;$$**>>>>>>",
">>>>>>@@++   Ooo######XXoo@@  ++XX@@..  XXXX##OOOOooXX@@OO>>>>>>",
">>>>>>@@.#  OOoo######XXoo@@  ++XX@@..  XXXX##OOOOooXX@@OO>>>>>>",
">>>>>>@@OOXX++oXOOooOOoo@@@XOO  O@XX..  ++.+++OOXX  +#oo..>>>>>>",
">>>>>>@@OOXX++ooOO#oOOoo@@XX O  O@XX..  ++++++OOXX  ++oo..>>>>>>",
">>>>>>**;;*&;;ooOO%%==$$;;%%==**&&**&*%%XX@@&&$$$$$$$$&&=;>>>>>>",
">>>>>>**;:**;;ooOO%%==$$;;*%==**&&&*&&%%XXX@*&$$$$$$$$&&;;>>>>>>",
">>>>>>==;=::%%##..%%%%&&;;%-----;;--==::oo  :-==*:%%==%%;=>>>>>>",
">>>>>>==;;::%%##..%%%%&&;;%%---%;;--==::oo  =-==**%%==%%==>>>>>>",
">>>>>>%%&&&&*&..++==;;--;;--**$$****::**@@OO::&$**&&**&&;;>>>>>>",
">>>>>>%%&&&&**..++==;;--;;--**$$***&::**@@OO::&;**&&**&&;;>>>>>>",
">>>>>>**--::%%@@XX$$=;**$$;;--==--$$&&==..++;&**;;;;--%%-->>>>>>",
">>>>>>*%:-::%-@@XX$$==**$$;;--$=--$$&&==..++;&**;=;=%-%%-->>>>>>",
">>>>>>--::::**@OOO==%%**$=--&&--&&$$--$$@@  $$%%;;--**::$$>>>>>>",
">>>>>>--::::**OOOO==%%:*==--&&--&&$&=-$$@@  $$%%;;--**::$$>>>>>>",
">>>>>>----$$=-ooOO&&$$--=$--;;========$$OO##==&&==**==%%&&>>>>>>",
">>>>>>----$$==ooOO&&$$--$$--;;========$$OO##=;&&==**==%$&&>>>>>>",
">>>>>>XX++XXO+..ooXXXXXXoo++  ..@@O@..XX..  ++@@oo++  @XXX>>>>>>",
">>>>>>XX.+XXOO..ooXXXXXXoo++  ..@@@@..oX..  ++@@#X++  XX X>>>>>>",
">>>>>>XX@@####@@  +#  XXXX  oo  oooooo####XX##  ....OO  XX>>>>>>",
">>>>>>XX@@####@@  ## XXXXo  oo  oooooo#+##@XO#  ....OO  XX>>>>>>",
">>>>>>&&&&;;&&******&&&&XX  $$&&::%%%%==:;**:***  ++:;::**>>>>>>",
">>>>>>&&&&;;&&:******&&&XX  $$&&::%%%%==::*&::**  ++::::**>>>>>>",
">>>>>>==::&&;;*%$$==&&&&XXXX::;;==::&&&&;;**&&**..@@::--$$>>>>>>",
">>>>>>==::&&;;%%$$==&&&&XXXX::;;==::&&&&;;**&&**..@@::--$$>>>>>>",
">>>>>>:;%%**--$$--%%&&$&++..;;**::;;;;;;**;;;;::oo..$$&&==>>>>>>",
">>>>>>;;%%:*-;$$--%%&&&&++..;;**::;;;;;;**;;;;;:Xo..$$&&==>>>>>>",
">>>>>>&&;;--&&;;&&$&$$;;@@##;;;;$$;;=%==**%%--%% O  *&**-->>>>>>",
">>>>>>&&;;--&&;;&&&&$$;;O@##;;;;$$;;%%==**%%--%%    **:*-->>>>>>",
">>>>>>::==::;;--$$&&::==OO@@%%==&&::-%$$;;%%$$;; X  ---*$$>>>>>>",
">>>>>>::==::;;--$$&&::$=OO@@%%$=&&:*--$$;;%%$$;; O  --%%$$>>>>>>",
">>>>>>%%$$::;;$$--%%****oooo::;;&&$$$$==**;;----ooXX&$%%**>>>>>>",
">>>>>>%%$$::;;$$-=*%****oooo::;;&&$$$$==**;;----ooXX&&%%**>>>>>>",
">>>>>>  ..++  ....OO..@@  +oXX    XX  ##++OOooXXooO@..  O.>>>>>>",
">>>>>>  ..+#  ....OO..@@  ++XX O   X  ##++OOooXXooOO..X ..>>>>>>",
">>>>>>......oo##ooOO    @@      ..  ++  ##..++oo@@++##  OO>>>>>>",
">>>>>>.O....oo##ooOO    @@ O    ..  ++  ##..++oo@@++##  OO>>>>>>",
">>>>>>::--**##..*****%****&&**&&*:**@@@O******%%&&********>>>>>>",
">>>>>>::--**##..**&*****%*&&**&&****@@OO******%%&&*****:**>>>>>>",
">>>>>>&&%%%%@X. ::====**&&%%%%;;&$%%@X++==&&::=&--==$$$$==>>>>>>",
">>>>>>;&%%%%XX  ::====**&&$%%%;;&&%$XX++==&&::;;--==$$$$==>>>>>>",
">>>>>>=;**$$## .::$$----::$$:*::%%==..  ;;%%::**--**&;**&&>>>>>>",
">>>>>>;;**$$##..::$$----::$$**::-%==..  ;;%%::**--**&&**&&>>>>>>",
">>>>>>$$--=-..XX&$%%==::;;&;===;--&&XX  ::;;==%%$$::%%;;==>>>>>>",
">>>>>>$$-=--+.XX$$%%==:;;;&&====--&&XX  ::;;==%%$$::%%;;==>>>>>>",
">>>>>>>>>>>>>>>>>>>>>>>>>>>>>>>>>>>>>>>>>>>>>>>>>>>>>>>>>>>>>>>>",
">>>>>>>>>>>>>>>>>>>>>>>>>>>>>>>>>>>>>>>>>>>>>>>>>>>>>>>>>>>>>>>>",
">>>>>>>>>>>>>>>>>>>>>>>>>>>>>>>>>>>>>>>>>>>>>>>>>>>>>>>>>>>>>>>>",
">>>>>>>>>>>>>>>>>>>>>>>>>>>>>>>>>>>>>>>>>>>>>>>>>>>>>>>>>>>>>>>>"
};
